<?xml version="1.0" standalone="no"?>
<!DOCTYPE svg PUBLIC "-//W3C//DTD SVG 20010904//EN"
 "http://www.w3.org/TR/2001/REC-SVG-20010904/DTD/svg10.dtd">
<svg version="1.0" xmlns="http://www.w3.org/2000/svg"
 width="217.000000pt" height="232.000000pt" viewBox="0 0 217.000000 232.000000"
 preserveAspectRatio="xMidYMid meet">

<g transform="translate(0.000000,232.000000) scale(0.100000,-0.100000)"
fill="#000000" stroke="none">
<path d="M1147 2170 c-12 -99 -29 -180 -37 -180 -5 0 -6 -8 -3 -19 3 -10 0
-22 -6 -25 -6 -4 -11 -18 -11 -32 0 -13 -5 -24 -11 -24 -8 0 -10 -12 -6 -36 5
-30 3 -35 -9 -30 -13 5 -15 -1 -12 -39 2 -33 0 -45 -11 -45 -10 0 -12 -10 -8
-40 4 -31 2 -40 -10 -40 -14 0 -13 -11 4 -57 3 -7 -2 -13 -10 -13 -13 0 -14
-6 -6 -32 6 -22 5 -34 -3 -39 -10 -7 -7 -43 7 -81 5 -13 2 -18 -9 -18 -19 0
-20 -7 -5 -50 9 -24 9 -34 0 -39 -8 -6 -8 -18 3 -49 13 -37 13 -42 1 -42 -19
0 -19 -1 1 -51 14 -33 15 -42 4 -49 -11 -7 -10 -17 5 -56 13 -33 15 -49 7 -52
-8 -2 -5 -20 8 -55 11 -29 16 -53 10 -57 -5 -3 -3 -24 5 -50 8 -25 19 -72 26
-105 33 -167 18 -178 -32 -23 -18 57 -37 109 -43 117 -6 8 -16 35 -21 60 -6
28 -16 46 -24 46 -11 0 -39 73 -41 109 0 4 -6 6 -14 3 -10 -4 -18 8 -26 44 -7
28 -18 53 -26 56 -7 3 -16 21 -20 40 -4 22 -11 32 -19 29 -8 -3 -15 9 -19 36
-5 29 -10 38 -21 35 -9 -4 -18 7 -28 36 -8 23 -20 41 -26 39 -6 -1 -14 5 -16
13 -16 49 -15 48 -30 35 -13 -10 -15 -8 -15 13 0 36 -10 57 -24 51 -8 -3 -17
11 -25 36 -7 24 -17 40 -24 37 -7 -2 -17 9 -24 25 -7 15 -18 28 -25 28 -8 0
-19 14 -25 31 -7 17 -16 28 -21 25 -5 -3 -15 8 -22 24 -7 17 -18 34 -25 38 -7
4 -40 47 -74 96 -33 49 -61 87 -61 84 0 -3 12 -32 26 -64 14 -33 28 -76 30
-97 2 -21 8 -47 14 -57 7 -13 7 -20 1 -20 -12 0 -3 -29 16 -51 11 -13 11 -18
2 -21 -9 -3 -7 -11 5 -31 10 -14 15 -31 11 -37 -3 -5 3 -22 15 -37 16 -20 18
-28 8 -34 -9 -6 -6 -15 15 -37 19 -20 24 -31 16 -39 -8 -8 -1 -22 26 -52 31
-34 34 -41 19 -41 -16 -1 -13 -6 13 -30 19 -17 30 -35 27 -43 -3 -9 8 -25 28
-41 25 -20 30 -28 20 -35 -10 -6 -6 -15 20 -35 25 -20 30 -28 20 -35 -10 -6
-5 -16 23 -39 21 -16 35 -35 31 -40 -3 -6 8 -22 26 -37 18 -15 33 -33 34 -41
2 -14 53 -63 67 -64 4 0 7 -6 7 -13 0 -8 47 -62 105 -122 107 -108 159 -178
116 -156 -11 6 -43 38 -72 70 -31 35 -57 57 -65 54 -8 -3 -14 -1 -14 5 0 16
-51 73 -60 67 -4 -3 -20 11 -35 30 -14 20 -31 33 -36 30 -5 -4 -21 8 -35 25
-14 17 -32 29 -39 28 -7 -2 -25 10 -40 26 -19 20 -29 25 -34 17 -5 -8 -17 0
-35 24 -20 26 -31 33 -40 26 -9 -8 -22 -1 -46 24 -23 24 -36 31 -41 23 -5 -8
-18 -3 -43 16 -20 15 -36 22 -36 16 0 -6 -12 -2 -26 9 -15 11 -30 18 -35 15
-5 -3 -22 4 -38 15 -15 11 -31 18 -34 15 -3 -3 -53 13 -113 35 -59 23 -110 41
-113 41 -3 0 19 -16 48 -35 30 -20 80 -63 111 -95 32 -33 63 -60 70 -60 7 0
10 -7 6 -15 -3 -10 5 -20 24 -30 17 -9 30 -23 30 -31 0 -9 13 -21 30 -27 17
-7 29 -18 27 -26 -1 -10 13 -21 40 -30 33 -12 42 -19 37 -33 -4 -13 4 -19 35
-28 28 -7 39 -15 35 -25 -4 -9 7 -17 35 -26 23 -7 41 -17 41 -24 0 -7 18 -17
41 -24 22 -7 42 -18 45 -26 3 -7 26 -16 52 -20 26 -4 52 -11 57 -15 6 -5 55
-23 110 -40 55 -18 104 -36 109 -40 5 -5 -22 -9 -60 -8 -109 1 -122 -1 -154
-17 -16 -8 -40 -15 -55 -15 -14 0 -25 -6 -25 -14 0 -7 -13 -16 -30 -19 -18 -4
-30 -13 -30 -22 0 -8 -4 -15 -8 -15 -5 0 -29 -19 -53 -43 -24 -23 -60 -55 -79
-71 -19 -15 -28 -26 -20 -23 34 10 128 40 167 51 23 7 46 9 50 5 5 -5 22 -5
38 0 17 6 50 15 75 21 25 6 59 16 75 22 17 5 42 11 56 12 14 2 56 19 93 40 57
32 67 35 73 21 5 -15 4 -52 -11 -245 l-5 -65 14 80 c7 44 14 105 14 136 1 82
10 116 32 122 10 3 67 -11 126 -30 60 -19 135 -39 168 -45 88 -14 175 -18 175
-7 0 5 15 9 33 9 17 0 52 8 77 17 25 9 81 19 125 22 l80 6 -50 18 c-27 10 -57
22 -65 26 -8 5 -40 14 -70 22 -30 7 -58 17 -61 23 -4 5 -19 6 -33 4 -14 -3
-26 -1 -26 5 0 5 -13 7 -30 5 -16 -3 -30 -1 -30 3 0 9 -108 4 -132 -6 -11 -4
-18 -3 -18 5 0 6 -4 9 -8 6 -4 -2 -30 -7 -57 -10 -28 -4 -75 -13 -105 -21 -81
-21 -43 4 86 55 57 23 106 45 109 49 4 8 107 59 158 80 15 6 26 16 25 23 -2 6
17 19 42 29 29 11 44 22 42 32 -1 9 9 17 25 22 36 9 53 23 47 39 -3 7 11 19
31 29 19 9 35 22 35 29 0 7 14 21 31 30 17 10 28 22 24 27 -3 6 8 17 25 26 19
10 30 22 26 30 -3 8 7 18 25 25 16 7 27 16 24 20 -5 7 106 120 151 156 11 7
-12 1 -51 -15 -96 -40 -108 -44 -127 -46 -10 -1 -29 -10 -43 -19 -14 -9 -30
-14 -36 -11 -5 4 -25 -5 -44 -19 -23 -18 -35 -22 -38 -13 -3 7 -20 -3 -46 -28
-30 -28 -41 -34 -41 -22 0 26 -16 20 -40 -13 -17 -25 -25 -28 -36 -19 -11 9
-17 5 -31 -20 -10 -17 -26 -31 -35 -31 -9 0 -26 -13 -38 -30 -12 -16 -25 -29
-29 -27 -11 3 -111 -99 -111 -113 0 -6 -4 -8 -10 -5 -5 3 -24 -17 -42 -44 -18
-28 -38 -51 -43 -51 -6 0 -17 -11 -25 -24 -20 -33 -111 -128 -117 -123 -5 6
137 194 171 226 14 14 26 32 26 41 0 9 15 31 34 49 19 18 32 39 30 45 -2 7 9
24 25 40 16 16 27 34 25 40 -2 6 9 25 26 41 16 16 30 36 30 45 0 9 12 27 26
39 19 17 23 25 14 31 -8 5 -4 15 16 35 20 20 24 30 15 33 -9 3 -4 14 16 34 19
21 24 32 15 35 -8 3 -2 17 20 41 27 31 29 38 15 40 -15 3 -12 10 15 40 26 31
29 38 15 40 -22 4 -21 5 6 53 17 31 19 41 9 48 -11 6 -10 15 5 46 14 29 15 39
6 42 -9 3 -10 10 -4 21 5 10 9 28 9 42 1 54 13 114 36 180 13 39 23 70 21 70
-1 0 -24 -37 -50 -81 -49 -86 -59 -100 -87 -127 -10 -9 -18 -25 -18 -35 0 -12
-5 -17 -14 -14 -9 4 -16 -4 -20 -24 -3 -16 -11 -28 -18 -27 -8 2 -14 -9 -16
-24 -2 -19 -9 -28 -22 -28 -13 0 -20 -10 -25 -39 -5 -28 -11 -38 -20 -35 -9 4
-15 -5 -17 -28 -2 -21 -8 -33 -18 -33 -10 0 -16 -12 -18 -33 -2 -23 -8 -32
-17 -28 -14 5 -25 -22 -25 -62 0 -19 -4 -22 -20 -17 -17 5 -20 2 -20 -24 0
-39 -9 -61 -26 -61 -9 0 -14 -12 -14 -35 0 -22 -6 -38 -15 -41 -8 -3 -17 -26
-21 -50 -3 -24 -10 -44 -15 -44 -4 0 -11 -22 -15 -49 -4 -35 -10 -48 -19 -44
-8 2 -15 -4 -17 -16 -2 -14 -7 -18 -16 -13 -10 7 -9 16 4 47 11 27 12 41 5 43
-7 2 -6 12 4 31 7 15 14 43 14 62 -1 19 2 49 6 67 5 20 3 32 -3 32 -6 0 -4 16
6 41 13 33 13 42 3 49 -11 6 -11 14 0 44 11 29 11 39 1 45 -10 6 -9 17 3 50
18 53 18 51 -1 51 -12 0 -14 5 -9 18 17 40 18 62 1 62 -13 0 -14 5 -6 26 16
40 13 64 -6 57 -12 -5 -15 -2 -11 13 20 64 20 77 4 71 -14 -5 -16 0 -10 38 4
33 2 45 -7 45 -8 0 -10 8 -6 26 4 14 3 31 -2 37 -11 14 -42 201 -45 272 l-2
50 -8 -65z m69 -1286 c-15 -14 -16 -14 -16 1 0 9 6 26 12 38 l13 22 3 -23 c2
-12 -4 -29 -12 -38z m-26 -114 c-18 -33 -25 -15 -9 22 9 23 15 28 17 16 2 -9
-2 -27 -8 -38z"/>
</g>
</svg>
